# xmcd
#
# Track frame offsets: 
#        150
#        19308
#        38530
#        56672
#        74306
#        90586
#        106240
#        125976
#        145011
#        162925
#        179633
#        196775
#        220561
#        238374
#        256801
#        280532
#        300955
#
# Disc length: 4266 seconds
#
# Revision: 0
# Processed by: cddbd v1.4PL0 Copyright (c) Steve Scherf et al.
# Submitted via: ExactAudioCopy v0.95a4
#
DISCID=e910a811
DTITLE=孙淑媚 - 久味情歌
DYEAR=2000
DGENRE=Pop
TTITLE0=舞女
TTITLE1=恰想也是你一人
TTITLE2=台北今夜冷清清
TTITLE3=期待再相会
TTITLE4=行船人的爱
TTITLE5=不如甭熟悉
TTITLE6=冷冷冷风冷酸酸
TTITLE7=别人的心肝
TTITLE8=爱袂到你
TTITLE9=宝贝
TTITLE10=风飞沙
TTITLE11=无情人有情天
TTITLE12=情字这条路
TTITLE13=情路这呢长
TTITLE14=妈妈你无对我讲
TTITLE15=夜夜心疼
TTITLE16=手下留情
EXTD=
EXTT0=
EXTT1=
EXTT2=
EXTT3=
EXTT4=
EXTT5=
EXTT6=
EXTT7=
EXTT8=
EXTT9=
EXTT10=
EXTT11=
EXTT12=
EXTT13=
EXTT14=
EXTT15=
EXTT16=
PLAYORDER=
